<?xml version="1.0" encoding="UTF-8"?>
<!DOCTYPE svg PUBLIC "-//W3C//DTD SVG 1.1//EN" "http://www.w3.org/Graphics/SVG/1.1/DTD/svg11.dtd">
<!-- Creator: CorelDRAW -->
<svg xmlns="http://www.w3.org/2000/svg" xml:space="preserve" width="1772px" height="1063px" style="shape-rendering:geometricPrecision; text-rendering:geometricPrecision; image-rendering:optimizeQuality; fill-rule:evenodd; clip-rule:evenodd"
viewBox="0 0 1356.81 814.089"
 xmlns:xlink="http://www.w3.org/1999/xlink">
 <defs>
  <style type="text/css">
   <![CDATA[
    .str0 {stroke:#810281;stroke-width:0.689262}
    .str1 {stroke:#810281;stroke-width:0.450462}
    .fil2 {fill:none;fill-rule:nonzero}
    .fil3 {fill:#810281}
    .fil1 {fill:#FFE000}
    .fil0 {fill:white}
   ]]>
  </style>
 </defs>
 <g id="Capa_x0020_1">
  <metadata id="CorelCorpID_0Corel-Layer"/>
  <polygon class="fil0" points="0,0 1356.81,0 1356.81,814.089 0,814.089 "/>
  <g>
   <path class="fil1" d="M675.913 410.134l35.0375 -81.9254c-58.1694,-83.0253 0.708257,-99.8389 -48.0701,-136.851 23.0487,51.8538 -24.5448,34.7281 -11.9897,133.776m25.0224 85.0008l0 0 0 0z"/>
   <path id="1" class="fil2 str0" d="M675.913 410.134l35.0375 -81.9254c-58.1694,-83.0253 0.708257,-99.8389 -48.0701,-136.851 23.0487,51.8538 -24.5448,34.7281 -11.9897,133.776m25.0224 85.0008l0 0 0 0z"/>
  </g>
  <g>
   <path class="fil2 str0" d="M671.568 337.207c-18.3912,-85.3925 23.1192,-114.477 -8.68814,-145.849"/>
  </g>
  <g>
   <path class="fil1" d="M675.911 410.133l20.3178 8.69085c27.698,-2.86378 48.5432,30.0055 87.8492,10.5352 60.9327,-30.1955 77.8685,10.8853 110.608,-32.2578 -51.8511,23.0478 -34.7272,-24.5421 -133.776,-11.9906m-84.999 25.0224l0 0 0 0z"/>
   <path id="1" class="fil2 str0" d="M675.911 410.133l20.3178 8.69085c27.698,-2.86378 48.5432,30.0055 87.8492,10.5352 60.9327,-30.1955 77.8685,10.8853 110.608,-32.2578 -51.8511,23.0478 -34.7272,-24.5421 -133.776,-11.9906m-84.999 25.0224l0 0 0 0z"/>
  </g>
  <g>
   <path class="fil2 str0" d="M748.836 405.789c85.3952,-18.3921 114.48,23.1201 145.85,-8.68904"/>
  </g>
  <g>
   <path class="fil1" d="M675.913 410.134l-81.9245 -35.0393c-83.0244,58.1685 -99.838,-0.709162 -136.851,48.0674 51.852,-23.045 34.7281,24.5439 133.777,11.9915m84.999 -25.0197l0 0 0 0z"/>
   <path id="1" class="fil2 str0" d="M675.913 410.134l-81.9245 -35.0393c-83.0244,58.1685 -99.838,-0.709162 -136.851,48.0674 51.852,-23.045 34.7281,24.5439 133.777,11.9915m84.999 -25.0197l0 0 0 0z"/>
  </g>
  <g>
   <path class="fil2 str0" d="M602.987 414.475c-85.3943,18.3939 -114.48,-23.1192 -145.85,8.68723"/>
  </g>
  <g>
   <path class="fil1" d="M675.913 410.134l-33.1533 -82.7069c-99.8389,-17.5753 -70.0958,-71.0962 -130.757,-62.7771 52.9619,20.3658 7.19926,41.9111 86.1125,103.072m77.7979 42.4122l0 0 0 0z"/>
   <path id="1" class="fil2 str0" d="M675.913 410.134l-33.1533 -82.7069c-99.8389,-17.5753 -70.0958,-71.0962 -130.757,-62.7771 52.9619,20.3658 7.19926,41.9111 86.1125,103.072m77.7979 42.4122l0 0 0 0z"/>
  </g>
  <g>
   <path class="fil2 str0" d="M621.274 361.639c-73.3874,-47.3791 -64.5989,-97.2963 -109.272,-96.9887"/>
  </g>
  <g>
   <path class="fil1" d="M675.913 410.134l82.7024 -33.1533c17.5762,-99.8399 71.0953,-70.0976 62.7789,-130.759 -20.3658,52.9619 -41.9102,7.20107 -103.073,86.1125m-42.4086 77.7998l0 0 0 0z"/>
   <path id="1" class="fil2 str0" d="M675.913 410.134l82.7024 -33.1533c17.5762,-99.8399 71.0953,-70.0976 62.7789,-130.759 -20.3658,52.9619 -41.9102,7.20107 -103.073,86.1125m-42.4086 77.7998l0 0 0 0z"/>
  </g>
  <g>
   <path class="fil2 str0" d="M724.405 355.494c47.3773,-73.3874 97.2972,-64.5989 96.9887,-109.272"/>
  </g>
  <g>
   <path class="fil1" d="M675.913 410.134l1.02032 -89.0984c-85.5128,-54.4445 -37.5539,-92.5076 -96.7798,-108.038 41.1341,39.0835 -9.38825,41.476 40.1138,128.182m55.6457 68.9542l0 0 0 0z"/>
   <path id="1" class="fil2 str0" d="M675.913 410.134l1.02032 -89.0984c-85.5128,-54.4445 -37.5539,-92.5076 -96.7798,-108.038 41.1341,39.0835 -9.38825,41.476 40.1138,128.182m55.6457 68.9542l0 0 0 0z"/>
  </g>
  <g>
   <path class="fil2 str0" d="M643.99 344.42c-49.6694,-71.8533 -22.4471,-114.61 -63.8372,-131.422"/>
  </g>
  <g>
   <path class="fil1" d="M675.913 410.134l89.0948 1.01852c54.4454,-85.5119 92.5067,-37.553 108.038,-96.7807 -39.0835,41.1359 -41.476,-9.38735 -128.18,40.1147m-68.9524 55.6475l0 0 0 0z"/>
   <path id="1" class="fil2 str0" d="M675.913 410.134l89.0948 1.01852c54.4454,-85.5119 92.5067,-37.553 108.038,-96.7807 -39.0835,41.1359 -41.476,-9.38735 -128.18,40.1147m-68.9524 55.6475l0 0 0 0z"/>
  </g>
  <g>
   <path class="fil2 str0" d="M741.624 378.211c71.8542,-49.6694 114.61,-22.4471 131.421,-63.839"/>
  </g>
  <g>
   <path class="fil1" d="M675.913 410.134l-62.2796 -63.7233c-98.9643,21.9695 -91.9676,-38.8601 -144.827,-7.96088 56.7239,-1.45089 22.6905,35.9646 119.002,62.2733m88.1052 9.41087l0 0 0 0z"/>
   <path id="1" class="fil2 str0" d="M675.913 410.134l-62.2796 -63.7233c-98.9643,21.9695 -91.9676,-38.8601 -144.827,-7.96088 56.7239,-1.45089 22.6905,35.9646 119.002,62.2733m88.1052 9.41087l0 0 0 0z"/>
  </g>
  <g>
   <path class="fil2 str0" d="M606.876 386.237c-85.9334,-15.6866 -96.9164,-65.1678 -138.07,-47.787"/>
  </g>
  <g>
   <path class="fil1" d="M675.913 410.134l63.7205 -62.2805c-21.9695,-98.9624 38.8592,-91.9676 7.96088,-144.828 1.44908,56.7248 -35.9655,22.6914 -62.2715,119.004m-9.40996 88.1052l0 0 0 0z"/>
   <path id="1" class="fil2 str0" d="M675.913 410.134l63.7205 -62.2805c-21.9695,-98.9624 38.8592,-91.9676 7.96088,-144.828 1.44908,56.7248 -35.9655,22.6914 -62.2715,119.004m-9.40996 88.1052l0 0 0 0z"/>
  </g>
  <g>
   <path class="fil2 str0" d="M699.806 341.097c15.6875,-85.9316 65.1687,-96.9173 47.7879,-138.071"/>
  </g>
  <g>
   <path class="fil1" d="M675.913 410.134l35.0375 -81.9254c-58.1694,-83.0253 0.708257,-99.8389 -48.0701,-136.851 23.0487,51.8538 -24.5448,34.7281 -11.9897,133.776m25.0224 85.0008l0 0 0 0z"/>
   <path id="1" class="fil2 str0" d="M675.913 410.134l35.0375 -81.9254c-58.1694,-83.0253 0.708257,-99.8389 -48.0701,-136.851 23.0487,51.8538 -24.5448,34.7281 -11.9897,133.776m25.0224 85.0008l0 0 0 0z"/>
  </g>
  <g>
   <path class="fil2 str0" d="M671.568 337.207c-18.3912,-85.3925 23.1192,-114.477 -8.68814,-145.849"/>
  </g>
  <g>
   <path class="fil1" d="M675.911 410.133l19.9732 8.54431c72.9351,31.1905 58.448,5.86958 126.483,-1.01942 32.0679,-3.24912 47.7391,11.8332 72.3182,-20.5566 -51.8511,23.0478 -34.7272,-24.5421 -133.776,-11.9906m-84.999 25.0224l0 0 0 0z"/>
   <path id="1" class="fil2 str0" d="M675.911 410.133l19.9732 8.54431c72.9351,31.1905 58.448,5.86958 126.483,-1.01942 32.0679,-3.24912 47.7391,11.8332 72.3182,-20.5566 -51.8511,23.0478 -34.7272,-24.5421 -133.776,-11.9906m-84.999 25.0224l0 0 0 0z"/>
  </g>
  <g>
   <path class="fil2 str0" d="M748.836 405.789c85.3952,-18.3921 114.48,23.1201 145.85,-8.68904"/>
  </g>
  <g>
   <path class="fil1" d="M675.913 410.134l-81.9245 -35.0393c-83.0244,58.1685 -99.838,-0.709162 -136.851,48.0674 51.852,-23.045 34.7281,24.5439 133.777,11.9915m84.999 -25.0197l0 0 0 0z"/>
   <path id="1" class="fil2 str0" d="M675.913 410.134l-81.9245 -35.0393c-83.0244,58.1685 -99.838,-0.709162 -136.851,48.0674 51.852,-23.045 34.7281,24.5439 133.777,11.9915m84.999 -25.0197l0 0 0 0z"/>
  </g>
  <g>
   <path class="fil2 str0" d="M602.987 414.475c-85.3943,18.3939 -114.48,-23.1192 -145.85,8.68723"/>
  </g>
  <g>
   <path class="fil1" d="M675.913 410.134l-33.1533 -82.7069c-99.8389,-17.5753 -70.0958,-71.0962 -130.757,-62.7771 52.9619,20.3658 7.19926,41.9111 86.1125,103.072m77.7979 42.4122l0 0 0 0z"/>
   <path id="1" class="fil2 str0" d="M675.913 410.134l-33.1533 -82.7069c-99.8389,-17.5753 -70.0958,-71.0962 -130.757,-62.7771 52.9619,20.3658 7.19926,41.9111 86.1125,103.072m77.7979 42.4122l0 0 0 0z"/>
  </g>
  <g>
   <path class="fil2 str0" d="M621.274 361.639c-73.3874,-47.3791 -64.5989,-97.2963 -109.272,-96.9887"/>
  </g>
  <g>
   <path class="fil1" d="M675.913 410.134l82.7024 -33.1533c17.5762,-99.8399 71.0953,-70.0976 62.7789,-130.759 -20.3658,52.9619 -41.9102,7.20107 -103.073,86.1125m-42.4086 77.7998l0 0 0 0z"/>
   <path id="1" class="fil2 str0" d="M675.913 410.134l82.7024 -33.1533c17.5762,-99.8399 71.0953,-70.0976 62.7789,-130.759 -20.3658,52.9619 -41.9102,7.20107 -103.073,86.1125m-42.4086 77.7998l0 0 0 0z"/>
  </g>
  <g>
   <path class="fil2 str0" d="M724.405 355.494c47.3773,-73.3874 97.2972,-64.5989 96.9887,-109.272"/>
  </g>
  <g>
   <path class="fil1" d="M675.913 410.134l1.02032 -89.0984c-85.5128,-54.4445 -37.5539,-92.5076 -96.7798,-108.038 41.1341,39.0835 -9.38825,41.476 40.1138,128.182m55.6457 68.9542l0 0 0 0z"/>
   <path id="1" class="fil2 str0" d="M675.913 410.134l1.02032 -89.0984c-85.5128,-54.4445 -37.5539,-92.5076 -96.7798,-108.038 41.1341,39.0835 -9.38825,41.476 40.1138,128.182m55.6457 68.9542l0 0 0 0z"/>
  </g>
  <g>
   <path class="fil2 str0" d="M643.99 344.42c-49.6694,-71.8533 -22.4471,-114.61 -63.8372,-131.422"/>
  </g>
  <g>
   <path class="fil1" d="M675.913 410.134l89.0948 1.01852c54.4454,-85.5119 92.5067,-37.553 108.038,-96.7807 -39.0835,41.1359 -41.476,-9.38735 -128.18,40.1147m-68.9524 55.6475l0 0 0 0z"/>
   <path id="1" class="fil2 str0" d="M675.913 410.134l89.0948 1.01852c54.4454,-85.5119 92.5067,-37.553 108.038,-96.7807 -39.0835,41.1359 -41.476,-9.38735 -128.18,40.1147m-68.9524 55.6475l0 0 0 0z"/>
  </g>
  <g>
   <path class="fil2 str0" d="M741.624 378.211c71.8542,-49.6694 114.61,-22.4471 131.421,-63.839"/>
  </g>
  <g>
   <path class="fil1" d="M675.913 410.134l-62.2796 -63.7233c-98.9643,21.9695 -91.9676,-38.8601 -144.827,-7.96088 56.7239,-1.45089 22.6905,35.9646 119.002,62.2733m88.1052 9.41087l0 0 0 0z"/>
   <path id="1" class="fil2 str0" d="M675.913 410.134l-62.2796 -63.7233c-98.9643,21.9695 -91.9676,-38.8601 -144.827,-7.96088 56.7239,-1.45089 22.6905,35.9646 119.002,62.2733m88.1052 9.41087l0 0 0 0z"/>
  </g>
  <g>
   <path class="fil2 str0" d="M606.876 386.237c-85.9334,-15.6866 -96.9164,-65.1678 -138.07,-47.787"/>
  </g>
  <g>
   <path class="fil1" d="M675.913 410.134l63.7205 -62.2805c-21.9695,-98.9624 38.8592,-91.9676 7.96088,-144.828 1.44908,56.7248 -35.9655,22.6914 -62.2715,119.004m-9.40996 88.1052l0 0 0 0z"/>
   <path id="1" class="fil2 str0" d="M675.913 410.134l63.7205 -62.2805c-21.9695,-98.9624 38.8592,-91.9676 7.96088,-144.828 1.44908,56.7248 -35.9655,22.6914 -62.2715,119.004m-9.40996 88.1052l0 0 0 0z"/>
  </g>
  <g>
   <path class="fil2 str0" d="M699.806 341.097c15.6875,-85.9316 65.1687,-96.9173 47.7879,-138.071"/>
  </g>
  <g>
   <path class="fil1" d="M674.053 408.276l64.3745 -88.0781c-46.5161,-115.073 28.3529,-118.908 -19.6367,-176.503 13.2054,68.2089 -38.8492,34.6657 -51.1655,156.283m6.42768 108.297l0 0 0 0z"/>
   <path id="1" class="fil2 str0" d="M674.053 408.276l64.3745 -88.0781c-46.5161,-115.073 28.3529,-118.908 -19.6367,-176.503 13.2054,68.2089 -38.8492,34.6657 -51.1655,156.283m6.42768 108.297l0 0 0 0z"/>
  </g>
  <g>
   <path class="fil2 str0" d="M688.967 320.082c1.58838,-106.938 59.1237,-130.196 29.8237,-176.386"/>
  </g>
  <g>
   <path class="fil1" d="M674.054 408.275c48.0258,3.97818 110.257,23.8157 168.399,43.5682 4.92524,1.6725 12.2529,13.854 17.0696,15.3501 30.4786,9.47509 59.1879,4.80765 79.1113,-14.1832 -68.2071,13.2072 -34.6657,-38.8474 -156.284,-51.1655m-108.296 6.4304l0 0 0 0z"/>
   <path id="1" class="fil2 str0" d="M674.054 408.275c48.0258,3.97818 110.257,23.8157 168.399,43.5682 4.92524,1.6725 12.2529,13.854 17.0696,15.3501 30.4786,9.47509 59.1879,4.80765 79.1113,-14.1832 -68.2071,13.2072 -34.6657,-38.8474 -156.284,-51.1655m-108.296 6.4304l0 0 0 0z"/>
  </g>
  <g>
   <path class="fil2 str0" d="M762.248 423.187c106.94,1.58838 130.199,59.1255 176.386,29.8237"/>
  </g>
  <g>
   <path class="fil1" d="M674.053 408.276l-88.0745 -64.3745c-115.074,46.5179 -118.908,-28.3529 -176.503,19.6367 68.2071,-13.2054 34.6657,38.8492 156.283,51.1655m108.294 -6.42768l0 0 0 0z"/>
   <path id="1" class="fil2 str0" d="M674.053 408.276l-88.0745 -64.3745c-115.074,46.5179 -118.908,-28.3529 -176.503,19.6367 68.2071,-13.2054 34.6657,38.8492 156.283,51.1655m108.294 -6.42768l0 0 0 0z"/>
  </g>
  <g>
   <path class="fil2 str0" d="M585.862 393.364c-106.94,-1.58928 -130.199,-59.1255 -176.386,-29.8255"/>
  </g>
  <g>
   <path class="fil1" d="M674.053 408.276l-16.7594 -107.799c-114.26,-48.479 -64.0308,-104.128 -138.691,-110.92 57.5687,38.8881 -2.95786,51.9814 74.3299,146.686m81.1203 72.0324l0 0 0 0z"/>
   <path id="1" class="fil2 str0" d="M674.053 408.276l-16.7594 -107.799c-114.26,-48.479 -64.0308,-104.128 -138.691,-110.92 57.5687,38.8881 -2.95786,51.9814 74.3299,146.686m81.1203 72.0324l0 0 0 0z"/>
  </g>
  <g>
   <path class="fil2 str0" d="M622.237 335.368c-74.4946,-76.7405 -50.2564,-133.871 -103.634,-145.811"/>
  </g>
  <g>
   <path class="fil1" d="M674.053 408.276l107.799 -16.7612c48.479,-114.262 104.128,-64.0326 110.92,-138.693 -38.8881,57.5687 -51.9796,-2.95786 -146.686,74.3299m-72.0324 81.124l0 0 0 0z"/>
   <path id="1" class="fil2 str0" d="M674.053 408.276l107.799 -16.7612c48.479,-114.262 104.128,-64.0326 110.92,-138.693 -38.8881,57.5687 -51.9796,-2.95786 -146.686,74.3299m-72.0324 81.124l0 0 0 0z"/>
  </g>
  <g>
   <path class="fil2 str0" d="M746.961 356.457c76.7405,-74.4946 133.872,-50.2564 145.811,-103.634"/>
  </g>
  <g>
   <path class="fil1" d="M674.053 408.276l25.7695 -106.008c-87.0134,-88.5114 -19.3093,-120.705 -85.6865,-155.552 38.3029,57.9595 -22.6262,46.8933 12.537,163.967m47.38 97.593l0 0 0 0z"/>
   <path id="1" class="fil2 str0" d="M674.053 408.276l25.7695 -106.008c-87.0134,-88.5114 -19.3093,-120.705 -85.6865,-155.552 38.3029,57.9595 -22.6262,46.8933 12.537,163.967m47.38 97.593l0 0 0 0z"/>
  </g>
  <g>
   <path class="fil2 str0" d="M654.081 321.087c-39.4553,-99.4048 4.7986,-142.911 -39.9455,-174.371"/>
  </g>
  <g>
   <path class="fil1" d="M674.053 408.276l106.008 25.7659c88.5114,-87.0125 120.705,-19.3093 155.551,-85.6865 -57.9586,38.3029 -46.8924,-22.6262 -163.967,12.537m-97.5921 47.3836l0 0 0 0z"/>
   <path id="1" class="fil2 str0" d="M674.053 408.276l106.008 25.7659c88.5114,-87.0125 120.705,-19.3093 155.551,-85.6865 -57.9586,38.3029 -46.8924,-22.6262 -163.967,12.537m-97.5921 47.3836l0 0 0 0z"/>
  </g>
  <g>
   <path class="fil2 str0" d="M761.241 388.301c99.4066,-39.4553 142.912,4.7986 174.371,-39.9455"/>
  </g>
  <g>
   <path class="fil1" d="M674.054 408.275l-106.005 -25.7668c-88.5132,87.0107 -120.706,19.3093 -155.553,85.6847 39.8415,-26.3186 47.0552,-5.72847 85.7226,-1.73582m175.836 -58.182l0 0 0 0z"/>
   <path id="1" class="fil2 str0" d="M674.054 408.275l-106.005 -25.7668c-88.5132,87.0107 -120.706,19.3093 -155.553,85.6847 39.8415,-26.3186 47.0552,-5.72847 85.7226,-1.73582m175.836 -58.182l0 0 0 0z"/>
  </g>
  <g>
   <path class="fil2 str0" d="M586.868 428.248c-99.4057,39.4553 -142.913,-4.7986 -174.372,39.9455"/>
  </g>
  <g>
   <path class="fil1" d="M674.053 408.276l-56.7348 -93.1797c-124.116,-1.06012 -99.0086,-71.6977 -170.582,-49.4016 68.0705,13.8983 17.1592,49.1565 124.807,107.077m102.51 35.5042l0 0 0 0z"/>
   <path id="1" class="fil2 str0" d="M674.053 408.276l-56.7348 -93.1797c-124.116,-1.06012 -99.0086,-71.6977 -170.582,-49.4016 68.0705,13.8983 17.1592,49.1565 124.807,107.077m102.51 35.5042l0 0 0 0z"/>
  </g>
  <g>
   <path class="fil2 str0" d="M598.283 360.748c-98.1936,-42.3905 -97.6635,-104.449 -151.547,-95.053"/>
  </g>
  <g>
   <path class="fil1" d="M674.053 408.276l93.1797 -56.7384c1.06012,-124.116 71.6977,-99.0086 49.4034,-170.582 -13.9001,68.0705 -49.1583,17.1592 -107.079,124.809m-35.5042 102.512l0 0 0 0z"/>
   <path id="1" class="fil2 str0" d="M674.053 408.276l93.1797 -56.7384c1.06012,-124.116 71.6977,-99.0086 49.4034,-170.582 -13.9001,68.0705 -49.1583,17.1592 -107.079,124.809m-35.5042 102.512l0 0 0 0z"/>
  </g>
  <g>
   <path class="fil2 str0" d="M721.58 332.503c42.3932,-98.1918 104.449,-97.6617 95.0557,-151.547"/>
  </g>
  <g>
   <path class="fil1" d="M674.053 408.276l64.3745 -88.0781c-46.5161,-115.073 28.3529,-118.908 -19.6367,-176.503 13.2054,68.2089 -38.8492,34.6657 -51.1655,156.283m6.42768 108.297l0 0 0 0z"/>
   <path id="1" class="fil2 str0" d="M674.053 408.276l64.3745 -88.0781c-46.5161,-115.073 28.3529,-118.908 -19.6367,-176.503 13.2054,68.2089 -38.8492,34.6657 -51.1655,156.283m6.42768 108.297l0 0 0 0z"/>
  </g>
  <g>
   <path class="fil2 str0" d="M688.967 320.082c1.58838,-106.938 59.1237,-130.196 29.8237,-176.386"/>
  </g>
  <g>
   <path class="fil2 str0" d="M762.248 423.187c106.94,1.58838 130.199,59.1255 176.386,29.8237"/>
  </g>
  <g>
   <path class="fil1" d="M674.053 408.276l-88.0745 -64.3745c-115.074,46.5179 -118.908,-28.3529 -176.503,19.6367 68.2071,-13.2054 34.6657,38.8492 156.283,51.1655m108.294 -6.42768l0 0 0 0z"/>
   <path id="1" class="fil2 str0" d="M674.053 408.276l-88.0745 -64.3745c-115.074,46.5179 -118.908,-28.3529 -176.503,19.6367 68.2071,-13.2054 34.6657,38.8492 156.283,51.1655m108.294 -6.42768l0 0 0 0z"/>
  </g>
  <g>
   <path class="fil2 str0" d="M585.862 393.364c-106.94,-1.58928 -130.199,-59.1255 -176.386,-29.8255"/>
  </g>
  <g>
   <path class="fil1" d="M674.053 408.276l-16.7594 -107.799c-114.26,-48.479 -64.0308,-104.128 -138.691,-110.92 57.5687,38.8881 -2.95786,51.9814 74.3299,146.686m81.1203 72.0324l0 0 0 0z"/>
   <path id="1" class="fil2 str0" d="M674.053 408.276l-16.7594 -107.799c-114.26,-48.479 -64.0308,-104.128 -138.691,-110.92 57.5687,38.8881 -2.95786,51.9814 74.3299,146.686m81.1203 72.0324l0 0 0 0z"/>
  </g>
  <g>
   <path class="fil2 str0" d="M622.237 335.368c-74.4946,-76.7405 -50.2564,-133.871 -103.634,-145.811"/>
  </g>
  <g>
   <path class="fil1" d="M674.053 408.276l107.799 -16.7612c48.479,-114.262 104.128,-64.0326 110.92,-138.693 -38.8881,57.5687 -51.9796,-2.95786 -146.686,74.3299m-72.0324 81.124l0 0 0 0z"/>
   <path id="1" class="fil2 str0" d="M674.053 408.276l107.799 -16.7612c48.479,-114.262 104.128,-64.0326 110.92,-138.693 -38.8881,57.5687 -51.9796,-2.95786 -146.686,74.3299m-72.0324 81.124l0 0 0 0z"/>
  </g>
  <g>
   <path class="fil2 str0" d="M746.961 356.457c76.7405,-74.4946 133.872,-50.2564 145.811,-103.634"/>
  </g>
  <g>
   <path class="fil1" d="M674.053 408.276l25.7695 -106.008c-87.0134,-88.5114 -19.3093,-120.705 -85.6865,-155.552 38.3029,57.9595 -22.6262,46.8933 12.537,163.967m47.38 97.593l0 0 0 0z"/>
   <path id="1" class="fil2 str0" d="M674.053 408.276l25.7695 -106.008c-87.0134,-88.5114 -19.3093,-120.705 -85.6865,-155.552 38.3029,57.9595 -22.6262,46.8933 12.537,163.967m47.38 97.593l0 0 0 0z"/>
  </g>
  <g>
   <path class="fil2 str0" d="M654.081 321.087c-39.4553,-99.4048 4.7986,-142.911 -39.9455,-174.371"/>
  </g>
  <g>
   <path class="fil1" d="M674.053 408.276l106.008 25.7659c88.5114,-87.0125 120.705,-19.3093 155.551,-85.6865 -57.9586,38.3029 -46.8924,-22.6262 -163.967,12.537m-97.5921 47.3836l0 0 0 0z"/>
   <path id="1" class="fil2 str0" d="M674.053 408.276l106.008 25.7659c88.5114,-87.0125 120.705,-19.3093 155.551,-85.6865 -57.9586,38.3029 -46.8924,-22.6262 -163.967,12.537m-97.5921 47.3836l0 0 0 0z"/>
  </g>
  <g>
   <path class="fil2 str0" d="M761.241 388.301c99.4066,-39.4553 142.912,4.7986 174.371,-39.9455"/>
  </g>
  <g>
   <path class="fil1" d="M674.054 408.275l-106.005 -25.7668c-88.5132,87.0107 -120.706,19.3093 -155.553,85.6847 39.8451,-26.3313 46.6482,-5.02202 85.3047,-1.02213m176.254 -58.8957l0 0 0 0z"/>
   <path id="1" class="fil2 str0" d="M674.054 408.275l-106.005 -25.7668c-88.5132,87.0107 -120.706,19.3093 -155.553,85.6847 39.8451,-26.3313 46.6482,-5.02202 85.3047,-1.02213m176.254 -58.8957l0 0 0 0z"/>
  </g>
  <g>
   <path class="fil2 str0" d="M586.868 428.248c-99.4057,39.4553 -142.913,-4.7986 -174.372,39.9455"/>
  </g>
  <g>
   <path class="fil1" d="M674.053 408.276l-56.7348 -93.1797c-124.116,-1.06012 -99.0086,-71.6977 -170.582,-49.4016 68.0705,13.8983 17.1592,49.1565 124.807,107.077m102.51 35.5042l0 0 0 0z"/>
   <path id="1" class="fil2 str0" d="M674.053 408.276l-56.7348 -93.1797c-124.116,-1.06012 -99.0086,-71.6977 -170.582,-49.4016 68.0705,13.8983 17.1592,49.1565 124.807,107.077m102.51 35.5042l0 0 0 0z"/>
  </g>
  <g>
   <path class="fil2 str0" d="M598.283 360.748c-98.1936,-42.3905 -97.6635,-104.449 -151.547,-95.053"/>
  </g>
  <g>
   <path class="fil1" d="M674.053 408.276l93.1797 -56.7384c1.06012,-124.116 71.6977,-99.0086 49.4034,-170.582 -13.9001,68.0705 -49.1583,17.1592 -107.079,124.809m-35.5042 102.512l0 0 0 0z"/>
   <path id="1" class="fil2 str0" d="M674.053 408.276l93.1797 -56.7384c1.06012,-124.116 71.6977,-99.0086 49.4034,-170.582 -13.9001,68.0705 -49.1583,17.1592 -107.079,124.809m-35.5042 102.512l0 0 0 0z"/>
  </g>
  <g>
   <path class="fil2 str0" d="M721.58 332.503c42.3932,-98.1918 104.449,-97.6617 95.0557,-151.547"/>
  </g>
  <path id="circle3450" class="fil1 str1" d="M721.073 281.914c39.1604,12.9241 70.33,43.4298 84.1542,82.1732 -32.0887,8.80663 -69.0329,16.5848 -102.398,18.8353 2.21884,-32.8847 9.68947,-69.2464 18.2437,-101.009z"/>
  <path id="circle3450_0" class="fil1 str1" d="M552.919 364.29c13.6776,-38.5317 44.4972,-68.9542 83.2912,-82.0728 8.61577,31.6898 16.166,67.9258 18.3776,100.706 -33.1117,-2.23422 -69.752,-9.91017 -101.669,-18.6327z"/>
  <path id="path3454" class="fil3" d="M596.67 362.542c7.12509,8.14089 11.1955,-6.10748 36.6385,-6.10748 25.4439,0 29.5143,15.2669 33.5848,12.2122 4.07135,-3.05193 -21.3734,-21.3734 -29.5143,-22.3893 -8.14179,-1.01852 -31.5514,7.12509 -40.7108,16.2845m0.00180909 0l0 0 0 0z"/>
  <path id="path3456" class="fil3" d="M632.108 371.316c-4.42503,3.79275 -0.632276,12.0087 3.79275,12.0087 4.42503,0 12.641,-7.58369 8.84824,-12.641m-12.641 0.632276l0 0 0 0z"/>
  <path id="path3458" class="fil3" d="M659.77 380.861c-1.01761,-12.2122 -11.1955,-14.2484 -27.4782,-14.2484 -16.2845,0 -23.4078,12.2122 -29.5152,15.2669 7.12509,0 13.2308,-10.1779 29.5152,-10.1779 16.2845,0 16.2845,0 27.4782,10.1779m0 -1.01852l0 0 0 0z"/>
  <path id="path3460" class="fil3" d="M656.718 383.915c-4.07135,-6.10748 -9.1594,6.10657 -20.3558,6.10657 -11.1955,0 -17.3012,-3.05193 -24.4263,-8.14089 -7.12418,-5.08896 10.1779,12.2122 21.3734,12.2122 11.1964,0 26.4624,-6.10748 23.4087,-10.1779z"/>
  <path id="path3462" class="fil3" d="M622.114 390.02c-13.2298,-7.12509 -5.08896,-17.3003 0,-19.3373 -2.03613,2.03703 -10.1779,12.2122 0,19.3373z"/>
  <path class="fil3" d="M761.548 362.542c-7.12509,8.14089 -11.1964,-6.10748 -36.6385,-6.10748 -25.4439,0 -29.5152,15.2669 -33.5857,12.2122 -4.07044,-3.05193 21.3734,-21.3734 29.5152,-22.3893 8.14089,-1.01852 31.5505,7.12509 40.7108,16.2845m-0.00180909 0l0 0 0 0z"/>
  <path class="fil3" d="M728.172 371.356c4.70453,4.03245 0.672076,12.7685 -4.03245,12.7685 -4.70543,0 -13.4415,-8.064 -9.40906,-13.4406m13.4415 0.672076l0 0 0 0z"/>
  <path class="fil3" d="M698.447 380.861c1.01852,-12.2122 11.1955,-14.2484 27.4791,-14.2484 16.2845,0 23.4078,12.2122 29.5143,15.2669 -7.12509,0 -13.2298,-10.1779 -29.5143,-10.1779 -16.2854,0 -16.2854,0 -27.4791,10.1779m0 -1.01852l0 0 0 0z"/>
  <path class="fil3" d="M701.499 383.915c4.07044,-6.10748 9.1594,6.10657 20.3549,6.10657 11.1964,0 17.3012,-3.05193 24.4263,-8.14089 7.12509,-5.08896 -10.1779,12.2122 -21.3734,12.2122 -11.1955,0 -26.4624,-6.10748 -23.4078,-10.1779z"/>
  <path class="fil3" d="M736.103 390.02c13.2308,-7.12509 5.08896,-17.3003 0,-19.3373 2.03613,2.03703 10.1779,12.2122 0,19.3373z"/>
  <path class="fil3" d="M229.531 271.363c10.1996,27.4339 24.344,76.1906 27.1372,117.591 -41.4,-2.79323 -90.1576,-16.933 -117.592,-27.1336l0 90.4507c27.4339,-10.1996 76.1915,-24.3431 117.592,-27.1363 -2.79323,41.4 -16.9367,90.1576 -27.1372,117.592l90.4543 0c-10.1996,-27.4339 -24.3431,-76.1915 -27.1363,-117.592 41.4,2.79323 90.1576,16.9367 117.592,27.1372l0 -90.4543c-27.4339,10.1996 -76.1915,24.3431 -117.592,27.1363 2.79323,-41.4 16.6888,-90.1567 26.8894,-117.591l-90.2074 0z"/>
  <path class="fil3" d="M1041.63 271.363c10.1996,27.4339 24.344,76.1906 27.1372,117.591 -41.4,-2.79323 -90.1576,-16.933 -117.592,-27.1336l0 90.4507c27.4339,-10.1996 76.1915,-24.3431 117.592,-27.1363 -2.79323,41.4 -16.9367,90.1576 -27.1372,117.592l90.4543 0c-10.1996,-27.4339 -24.3431,-76.1915 -27.1363,-117.592 41.4,2.79323 90.1576,16.9367 117.592,27.1372l0 -90.4543c-27.4339,10.1996 -76.1915,24.3431 -117.592,27.1363 2.79323,-41.4 16.6888,-90.1567 26.8894,-117.591l-90.2074 0z"/>
  <path class="fil3" d="M618.404 226.136c13.5998,36.5779 32.4595,101.587 36.1835,156.787 -55.2006,-3.724 -120.211,-22.5765 -156.789,-36.1781l0 120.602c36.5779,-13.5998 101.588,-32.4586 156.789,-36.1826 -3.724,55.2006 -22.5828,120.211 -36.1835,156.789l120.606 0c-13.5998,-36.5779 -32.4577,-101.588 -36.1817,-156.789 55.1997,3.724 120.21,22.5828 156.788,36.1835l0 -120.606c-36.5779,13.5998 -101.588,32.4577 -156.788,36.1817 3.724,-55.1997 22.2518,-120.209 35.8525,-156.787l-120.277 0z"/>
 </g>
</svg>
