<?xml version="1.0" encoding="UTF-8"?>
<!DOCTYPE svg PUBLIC "-//W3C//DTD SVG 1.1//EN" "http://www.w3.org/Graphics/SVG/1.1/DTD/svg11.dtd">
<svg xmlns="http://www.w3.org/2000/svg" version="1.1" width="290px" height="174px" style="shape-rendering:geometricPrecision; text-rendering:geometricPrecision; image-rendering:optimizeQuality; fill-rule:evenodd; clip-rule:evenodd" xmlns:xlink="http://www.w3.org/1999/xlink">
<g><path style="opacity:0.995" fill="#fefdfd" d="M -0.5,-0.5 C 95.8333,-0.5 192.167,-0.5 288.5,-0.5C 288.5,57.5 288.5,115.5 288.5,173.5C 192.167,173.5 95.8333,173.5 -0.5,173.5C -0.5,115.5 -0.5,57.5 -0.5,-0.5 Z"/></g>
<g><path style="opacity:1" fill="#f5d32c" d="M 137.5,47.5 C 135.167,47.5 132.833,47.5 130.5,47.5C 130.954,44.1349 131.62,40.8015 132.5,37.5C 130.012,29.8571 131.179,29.5238 136,36.5C 136.548,40.1704 137.048,43.8371 137.5,47.5 Z"/></g>
<g><path style="opacity:1" fill="#f7d625" d="M 153.5,47.5 C 150.833,47.5 148.167,47.5 145.5,47.5C 147.024,43.7978 149.19,40.4645 152,37.5C 152.196,29.7371 153.363,29.5705 155.5,37C 154.308,40.4073 153.641,43.9073 153.5,47.5 Z"/></g>
<g><path style="opacity:1" fill="#edc83e" d="M 144.5,47.5 C 143.5,47.5 142.5,47.5 141.5,47.5C 141.614,41.236 142.614,41.236 144.5,47.5 Z"/></g>
<g><path style="opacity:1" fill="#810880" d="M 130.5,47.5 C 132.833,47.5 135.167,47.5 137.5,47.5C 138.833,47.5 140.167,47.5 141.5,47.5C 142.5,47.5 143.5,47.5 144.5,47.5C 144.833,47.5 145.167,47.5 145.5,47.5C 148.167,47.5 150.833,47.5 153.5,47.5C 154.833,47.5 155.5,48.1667 155.5,49.5C 151.399,57.5357 149.732,65.869 150.5,74.5C 150.5,74.8333 150.5,75.1667 150.5,75.5C 149.624,75.3691 148.957,75.7025 148.5,76.5C 150.766,77.3142 153.1,77.8142 155.5,78C 154.289,78.8928 154.289,79.7261 155.5,80.5C 156.445,78.483 157.945,78.1497 160,79.5C 166.226,77.9226 172.393,76.256 178.5,74.5C 179.798,73.8843 180.798,73.8843 181.5,74.5C 181.5,76.8333 181.5,79.1667 181.5,81.5C 181.5,82.8333 181.5,84.1667 181.5,85.5C 181.5,86.5 181.5,87.5 181.5,88.5C 181.5,88.8333 181.5,89.1667 181.5,89.5C 181.5,92.5 181.5,95.5 181.5,98.5C 170.941,94.2544 159.941,91.9211 148.5,91.5C 149.226,102.858 151.559,113.858 155.5,124.5C 147.16,124.666 138.827,124.5 130.5,124C 134.88,113.272 137.547,102.105 138.5,90.5C 127.601,91.813 116.934,94.1463 106.5,97.5C 105.167,89.8333 105.167,82.1667 106.5,74.5C 113.155,76.1636 119.821,77.8303 126.5,79.5C 127.925,79.3767 129.258,79.0434 130.5,78.5C 132.698,77.8347 135.031,77.1681 137.5,76.5C 137.376,75.8933 137.043,75.56 136.5,75.5C 137.742,73.3888 137.742,71.3888 136.5,69.5C 135.43,61.8827 133.43,54.5494 130.5,47.5 Z"/></g>
<g><path style="opacity:1" fill="#800680" d="M 47.5,58.5 C 53.31,57.5104 59.31,57.1771 65.5,57.5C 62.7252,65.6014 61.0585,73.9347 60.5,82.5C 68.954,81.3692 77.2874,79.7025 85.5,77.5C 85.6662,83.5092 85.4995,89.5092 85,95.5C 77.1712,92.2757 69.0045,90.2757 60.5,89.5C 61.5296,97.9812 63.1962,106.315 65.5,114.5C 59.4908,114.666 53.4908,114.499 47.5,114C 50.7229,106.186 52.7229,98.019 53.5,89.5C 45.0043,90.3741 36.6709,92.0408 28.5,94.5C 28.5,88.8333 28.5,83.1667 28.5,77.5C 36.6709,79.9592 45.0043,81.6259 53.5,82.5C 53.0413,73.998 51.0413,65.998 47.5,58.5 Z"/></g>
<g><path style="opacity:1" fill="#810d81" d="M 221.5,57.5 C 227.509,57.3338 233.509,57.5005 239.5,58C 236.33,65.8477 234.664,74.0144 234.5,82.5C 242.827,81.7794 250.827,79.7794 258.5,76.5C 259.833,82.8333 259.833,89.1667 258.5,95.5C 250.916,91.9021 242.916,90.2354 234.5,90.5C 234.905,98.7833 236.572,106.783 239.5,114.5C 233.5,114.5 227.5,114.5 221.5,114.5C 224.573,106.469 226.24,98.1354 226.5,89.5C 217.954,90.0116 209.787,92.0116 202,95.5C 201.333,89.1667 201.333,82.8333 202,76.5C 209.79,79.9891 217.957,81.9891 226.5,82.5C 226.262,73.8797 224.595,65.5464 221.5,57.5 Z"/></g>
<g><path style="opacity:1" fill="#f9d81b" d="M 130.5,47.5 C 133.43,54.5494 135.43,61.8827 136.5,69.5C 136.768,71.099 136.434,72.4324 135.5,73.5C 133.011,73.2978 130.677,73.7978 128.5,75C 129.448,75.4828 130.448,75.6495 131.5,75.5C 133.167,75.5 134.833,75.5 136.5,75.5C 137.043,75.56 137.376,75.8933 137.5,76.5C 135.031,77.1681 132.698,77.8347 130.5,78.5C 129.258,79.0434 127.925,79.3767 126.5,79.5C 119.821,77.8303 113.155,76.1636 106.5,74.5C 106.5,73.8333 106.167,73.5 105.5,73.5C 103.974,71.87 101.974,71.0367 99.5,71C 102.43,69.3409 105.43,69.0076 108.5,70C 105.795,66.758 103.461,63.258 101.5,59.5C 99.8689,57.7026 97.8689,56.5359 95.5,56C 97.8333,55.3333 100.167,55.3333 102.5,56C 106.304,58.3045 109.97,60.8045 113.5,63.5C 114.483,59.9708 113.15,57.4708 109.5,56C 111.92,55.3131 114.087,55.8131 116,57.5C 116.004,53.5166 115.671,49.5166 115,45.5C 114.215,43.714 113.049,42.214 111.5,41C 113.289,40.4795 114.956,40.8129 116.5,42C 118.9,46.646 121.9,50.8127 125.5,54.5C 126.942,51.2133 126.275,48.3799 123.5,46C 126.142,45.7445 127.975,46.9112 129,49.5C 129.278,48.5842 129.778,47.9175 130.5,47.5 Z"/></g>
<g><path style="opacity:1" fill="#f8d71c" d="M 178.5,74.5 C 172.393,76.256 166.226,77.9226 160,79.5C 157.945,78.1497 156.445,78.483 155.5,80.5C 154.289,79.7261 154.289,78.8928 155.5,78C 153.1,77.8142 150.766,77.3142 148.5,76.5C 148.957,75.7025 149.624,75.3691 150.5,75.5C 153.587,75.5431 156.587,75.7097 159.5,76C 156.634,73.7213 153.634,73.2213 150.5,74.5C 149.732,65.869 151.399,57.5357 155.5,49.5C 156.935,48.2102 157.935,46.5435 158.5,44.5C 159.314,46.7662 159.814,49.0995 160,51.5C 162.564,49.2728 165.397,47.4394 168.5,46C 170.543,44.1886 172.043,42.022 173,39.5C 173.667,41.5 173.667,43.5 173,45.5C 169.97,49.6983 167.137,54.0316 164.5,58.5C 168.254,58.8606 171.087,57.194 173,53.5C 173.687,55.9203 173.187,58.087 171.5,60C 177.95,60.849 183.45,59.0157 188,54.5C 188.52,56.2889 188.187,57.9556 187,59.5C 182.589,62.9553 178.089,66.2886 173.5,69.5C 174.5,69.8333 175.5,70.1667 176.5,70.5C 179.386,69.8635 182.053,69.0301 184.5,68C 182.973,70.6902 180.973,72.8568 178.5,74.5 Z"/></g>
<g><path style="opacity:1" fill="#f8d71f" d="M 104.5,75.5 C 104.5,78.1667 104.5,80.8333 104.5,83.5C 100.798,81.9764 97.4645,79.8097 94.5,77C 85.3887,76.7897 85.2221,75.623 94,73.5C 97.4895,74.2757 100.989,74.9423 104.5,75.5 Z"/></g>
<g><path style="opacity:1" fill="#842a7f" d="M 135.5,73.5 C 134.167,74.1667 132.833,74.8333 131.5,75.5C 130.448,75.6495 129.448,75.4828 128.5,75C 130.677,73.7978 133.011,73.2978 135.5,73.5 Z"/></g>
<g><path style="opacity:1" fill="#b2786a" d="M 136.5,69.5 C 137.742,71.3888 137.742,73.3888 136.5,75.5C 134.833,75.5 133.167,75.5 131.5,75.5C 132.833,74.8333 134.167,74.1667 135.5,73.5C 136.434,72.4324 136.768,71.099 136.5,69.5 Z"/></g>
<g><path style="opacity:1" fill="#974b78" d="M 150.5,75.5 C 150.5,75.1667 150.5,74.8333 150.5,74.5C 153.634,73.2213 156.634,73.7213 159.5,76C 156.587,75.7097 153.587,75.5431 150.5,75.5 Z"/></g>
<g><path style="opacity:1" fill="#99547d" d="M 105.5,73.5 C 106.167,73.5 106.5,73.8333 106.5,74.5C 105.167,82.1667 105.167,89.8333 106.5,97.5C 106.158,98.3382 105.492,98.6716 104.5,98.5C 104.5,96.1667 104.5,93.8333 104.5,91.5C 104.5,90.5 104.5,89.5 104.5,88.5C 104.5,87.5 104.5,86.5 104.5,85.5C 104.5,84.8333 104.5,84.1667 104.5,83.5C 104.5,80.8333 104.5,78.1667 104.5,75.5C 104.328,74.5084 104.662,73.8417 105.5,73.5 Z"/></g>
<g><path style="opacity:1" fill="#f3d02d" d="M 181.5,74.5 C 184.448,75.3198 187.448,75.9865 190.5,76.5C 192.921,75.9279 195.254,75.4279 197.5,75C 193.215,79.5616 187.881,81.7283 181.5,81.5C 181.5,79.1667 181.5,76.8333 181.5,74.5 Z"/></g>
<g><path style="opacity:1" fill="#d7ae4e" d="M 130.5,78.5 C 131.675,78.281 132.675,78.6143 133.5,79.5C 131.948,80.7979 130.948,80.4646 130.5,78.5 Z"/></g>
<g><path style="opacity:1" fill="#e2bd45" d="M 135.5,78.5 C 137.983,78.73 138.483,79.3966 137,80.5C 135.97,80.1639 135.47,79.4972 135.5,78.5 Z"/></g>
<g><path style="opacity:1" fill="#f0cf2f" d="M 149.5,78.5 C 152.137,80.1538 151.803,80.6538 148.5,80C 149.056,79.6174 149.389,79.1174 149.5,78.5 Z"/></g>
<g><path style="opacity:1" fill="#f5d221" d="M 104.5,85.5 C 104.5,86.5 104.5,87.5 104.5,88.5C 102.161,87.3629 99.8275,87.1963 97.5,88C 99.3211,85.8634 101.654,85.0301 104.5,85.5 Z"/></g>
<g><path style="opacity:1" fill="#e4bd4c" d="M 181.5,85.5 C 187.764,85.6139 187.764,86.6139 181.5,88.5C 181.5,87.5 181.5,86.5 181.5,85.5 Z"/></g>
<g><path style="opacity:1" fill="#f4d229" d="M 181.5,89.5 C 183.886,90.3733 185.886,91.8733 187.5,94C 190.246,95.7497 193.246,96.7497 196.5,97C 191.724,99.611 186.724,100.111 181.5,98.5C 181.5,95.5 181.5,92.5 181.5,89.5 Z"/></g>
<g><path style="opacity:1" fill="#f8d71c" d="M 104.5,91.5 C 104.5,93.8333 104.5,96.1667 104.5,98.5C 100.843,97.838 97.176,97.1713 93.5,96.5C 91.4341,96.845 89.4341,97.0116 87.5,97C 92.1655,92.2786 97.8322,90.4453 104.5,91.5 Z"/></g>
</svg>
